<svg xmlns="http://www.w3.org/2000/svg" version="1.1" xmlns:xlink="http://www.w3.org/1999/xlink" width="512" height="512" x="0" y="0" viewBox="0 0 24 24" style="enable-background:new 0 0 512 512" xml:space="preserve" class=""><g><linearGradient id="a"><stop stop-opacity="1" stop-color="#fd4a85" offset="0"></stop><stop stop-opacity="1" stop-color="#fc72a4" offset="1"></stop></linearGradient><linearGradient xlink:href="#a" id="c" x1="12" x2="12" y1="2" y2="22" gradientUnits="userSpaceOnUse"></linearGradient><linearGradient xlink:href="#a" id="d" x1="11.901" x2="11.901" y1="6.751" y2="17.05" gradientUnits="userSpaceOnUse"></linearGradient><clipPath id="b"><path d="M0 0h24v24H0z" fill="#fc72a4" opacity="1" data-original="#000000"></path></clipPath><g fill-rule="evenodd" clip-path="url(#b)" clip-rule="evenodd"><path fill="url(#a)" d="M12 2C6.48 2 2 6.48 2 12s4.48 10 10 10 10-4.48 10-10S17.52 2 12 2zm0 18c-4.41 0-8-3.59-8-8s3.59-8 8-8 8 3.59 8 8-3.59 8-8 8z" opacity="1" data-original="url(#a)" class=""></path><path fill="url(#a)" d="M13.49 11.38c.43-1.22.17-2.64-.81-3.62a3.468 3.468 0 0 0-4.1-.59l2.35 2.35-1.41 1.41-2.35-2.35c-.71 1.32-.52 2.99.59 4.1.98.98 2.4 1.24 3.62.81l3.41 3.41c.2.2.51.2.71 0l1.4-1.4c.2-.2.2-.51 0-.71z" opacity="1" data-original="url(#a)" class=""></path></g></g></svg>