<svg xmlns="http://www.w3.org/2000/svg" version="1.1" xmlns:xlink="http://www.w3.org/1999/xlink" width="512" height="512" x="0" y="0" viewBox="0 0 512 512" style="enable-background:new 0 0 512 512" xml:space="preserve" class=""><g><linearGradient id="a" x1="115.727" x2="399.846" y1="504.084" y2="11.975" gradientUnits="userSpaceOnUse"><stop stop-opacity="1" stop-color="#008fe7" offset="0.044"></stop><stop stop-opacity="1" stop-color="#7f80ff" offset="0.754"></stop></linearGradient><path fill="url(#a)" fill-rule="evenodd" d="M255.939 5.998c-56.469 0-107.541 5.893-144.369 15.345-33.511 8.594-54.132 18.909-54.132 28.727 0 9.944 20.621 20.133 54.133 28.848 36.828 9.454 87.9 15.346 144.369 15.346 56.595 0 107.659-5.892 144.485-15.346 33.395-8.715 54.143-18.903 54.143-28.848 0-9.818-20.749-20.134-54.143-28.728-36.826-9.451-87.891-15.344-144.486-15.344zM61.243 472.367c53.153 21.112 120.918 33.635 194.696 33.635 73.901 0 141.666-12.522 194.822-33.635 7.484-2.946 12.15-9.82 12.15-17.801v-86.055c-13.75 14.973-43.582 22.711-58.681 26.64-46.647 12.028-100.045 15.834-148.292 15.834-48.121 0-101.521-3.806-148.294-15.834-14.979-3.929-44.81-11.667-58.558-26.64v86.055c.002 7.981 4.666 14.855 12.157 17.801zm0-301.131c53.153 20.991 120.918 33.633 194.696 33.633 73.901 0 141.666-12.642 194.822-33.633 7.484-2.949 12.15-9.822 12.15-17.926V67.254c-13.75 15.104-43.582 22.834-58.681 26.642-46.647 12.156-100.045 15.961-148.292 15.961-48.121 0-101.521-3.805-148.294-15.961-14.979-3.808-44.81-11.538-58.558-26.642v86.057c.002 8.103 4.666 14.976 12.157 17.925zm16.203-32.656c6.872 2.331 13.748 4.422 20.87 6.506v-21.604c-7.122-2.088-14.117-4.295-20.87-6.755zm41.738 11.91c4.42.98 8.837 1.962 13.381 2.943 2.453.491 5.032.98 7.491 1.473v-21.114c-1.106-.245-2.213-.366-3.318-.613a410.68 410.68 0 0 1-17.554-4.052zm41.738 8.1c6.875.987 13.875 1.965 20.872 2.824v-20.871a532.623 532.623 0 0 1-20.872-2.942zM61.243 321.862c53.153 20.989 120.918 33.635 194.696 33.635 73.901 0 141.666-12.646 194.822-33.635 7.484-2.946 12.15-9.82 12.15-17.923v-86.056c-13.75 14.975-43.582 22.834-58.681 26.638-46.647 12.035-100.045 15.836-148.292 15.836-48.121 0-101.521-3.801-148.294-15.836-14.979-3.804-44.81-11.663-58.558-26.638v86.056c.002 8.103 4.666 14.977 12.157 17.923zm16.203-32.654c6.872 2.331 13.748 4.419 20.87 6.383v-21.482c-7.122-2.088-14.117-4.419-20.87-6.753zm41.738 11.784a231.955 231.955 0 0 0 13.381 2.947c2.453.615 5.032 1.104 7.491 1.595V284.42a755.266 755.266 0 0 1-3.318-.736c-5.891-1.229-11.786-2.456-17.554-3.926zm41.738 8.103c6.875 1.104 13.875 2.088 20.872 2.824v-20.87c-7.122-.859-13.997-1.841-20.872-2.82zM77.446 439.838c6.872 2.207 13.748 4.42 20.87 6.383v-21.486c-7.122-2.209-14.117-4.421-20.87-6.873zm41.738 11.782c4.42.979 8.837 2.088 13.381 2.946 2.453.491 5.032.982 7.491 1.471V435.05c-1.106-.247-2.213-.491-3.318-.74-5.891-1.229-11.786-2.577-17.554-3.925zm41.738 8.103c6.875 1.103 13.875 1.961 20.872 2.824v-20.87a526.937 526.937 0 0 1-20.872-2.947zM65.658 340.154c-5.396 3.684-8.221 7.491-8.221 11.168 0 9.827 20.621 20.135 54.133 28.73 36.828 9.45 87.9 15.344 144.369 15.344 56.595 0 107.659-5.894 144.485-15.344 33.395-8.596 54.143-18.903 54.143-28.73 0-3.677-2.951-7.484-8.23-11.168-59.901 21.854-127.177 30.937-190.398 30.937-63.1 0-130.371-9.083-190.281-30.937zm0-150.63c-5.396 3.685-8.221 7.491-8.221 11.175 0 9.82 20.621 20.132 54.133 28.728 36.828 9.575 87.9 15.341 144.369 15.341 56.595 0 107.659-5.766 144.485-15.341 33.395-8.596 54.143-18.907 54.143-28.728 0-3.684-2.951-7.49-8.23-11.175-59.901 21.854-127.177 30.938-190.398 30.938-63.1.001-130.371-9.083-190.281-30.938z" clip-rule="evenodd" opacity="1" data-original="url(#a)" class=""></path></g></svg>