<svg xmlns="http://www.w3.org/2000/svg" version="1.1" xmlns:xlink="http://www.w3.org/1999/xlink" width="512" height="512" x="0" y="0" viewBox="0 0 512 512" style="enable-background:new 0 0 512 512" xml:space="preserve" class=""><g><linearGradient id="a" x1="256" x2="256" y1="508.001" y2="3.999" gradientUnits="userSpaceOnUse"><stop stop-opacity="1" stop-color="#9345ff" offset="0"></stop><stop stop-opacity="1" stop-color="#ac11dc" offset="1"></stop></linearGradient><path fill="url(#a)" d="m405.096 140.636-33.733-33.733c-3.023-3.022-7.646-3.474-11.197-1.093l-21.796 14.617-44.749-18.539-5.076-25.744c-.827-4.194-4.417-7.145-8.691-7.145h-47.706c-4.275 0-7.864 2.951-8.691 7.145l-5.076 25.744-44.749 18.539-21.796-14.617c-3.55-2.38-8.174-1.929-11.197 1.093l-33.733 33.733c-3.022 3.023-3.474 7.648-1.093 11.198l14.617 21.796-18.539 44.75-25.743 5.076c-4.194.827-7.145 4.416-7.145 8.691v47.705c0 4.275 2.951 7.865 7.145 8.692l25.744 5.075 18.539 44.749-14.617 21.796c-2.381 3.55-1.929 8.176 1.093 11.198l33.733 33.732c3.022 3.022 7.647 3.474 11.197 1.094l21.797-14.617 44.749 18.539 5.076 25.745c.827 4.194 4.417 7.145 8.692 7.145h47.706c4.274 0 7.864-2.951 8.691-7.145l5.076-25.745 44.749-18.539 21.796 14.617c3.551 2.38 8.175 1.928 11.198-1.094l33.733-33.732c3.023-3.022 3.474-7.648 1.093-11.198l-14.617-21.796 18.539-44.749 25.744-5.075c4.194-.827 7.145-4.417 7.145-8.692v-47.705c0-4.275-2.951-7.864-7.145-8.691l-25.743-5.076-18.539-44.75 14.617-21.796c2.38-3.55 1.929-8.175-1.093-11.198zM256 361.95c-58.514 0-105.951-47.436-105.951-105.951S197.485 150.049 256 150.049s105.951 47.436 105.951 105.95S314.515 361.95 256 361.95zm41.247-146.238 39.876 34.541a7.592 7.592 0 0 1 0 11.491l-39.876 34.541a7.6 7.6 0 0 1-10.726-.769 7.602 7.602 0 0 1 .769-10.722l33.248-28.798-33.248-28.793a7.6 7.6 0 0 1-.769-10.721c2.759-3.178 7.559-3.518 10.727-.77zm-72.537 11.491-33.248 28.793 33.248 28.798a7.603 7.603 0 1 1-9.962 11.491l-39.87-34.541a7.595 7.595 0 0 1 0-11.491l39.87-34.541c3.172-2.749 7.973-2.408 10.732.77 2.748 3.172 2.398 7.973-.77 10.721zm49.382-9.35-21.495 80.222a7.603 7.603 0 0 1-9.318 5.376c-4.052-1.084-6.46-5.256-5.376-9.308l21.506-80.222a7.598 7.598 0 0 1 9.308-5.376c4.052 1.084 6.465 5.256 5.376 9.308zM54.795 123.316a6.987 6.987 0 0 0 9.734-1.695c21.55-30.648 50.284-55.892 83.759-73.291 32.228-16.75 68.859-26.217 107.711-26.217 14.973 0 29.558 1.389 43.636 4.044a232.319 232.319 0 0 1 16.615 3.771 27.752 27.752 0 0 0-.053 1.688c0 15.231 12.392 27.624 27.619 27.624s27.624-12.393 27.624-27.624-12.392-27.619-27.624-27.619c-9.71 0-18.268 5.041-23.193 12.641a246.939 246.939 0 0 0-18.417-4.209A249.203 249.203 0 0 0 256 8.111c-41.16 0-79.987 10.039-114.164 27.803C106.387 54.339 75.945 81.09 53.1 113.58a6.987 6.987 0 0 0 1.695 9.734zM343.816 18.001c7.514 0 13.621 6.107 13.621 13.617s-6.107 13.621-13.621 13.621-13.617-6.107-13.617-13.621 6.112-13.617 13.617-13.617zM495.361 320.62a247.357 247.357 0 0 0 4.208-18.414A249.117 249.117 0 0 0 503.887 256c0-41.16-10.039-79.987-27.803-114.164-18.425-35.449-45.176-65.891-77.666-88.736a6.987 6.987 0 1 0-8.039 11.429c30.648 21.55 55.892 50.284 73.291 83.759 16.751 32.228 26.217 68.859 26.217 107.711 0 14.973-1.389 29.558-4.044 43.636a230.976 230.976 0 0 1-3.77 16.61 27.98 27.98 0 0 0-1.695-.054c-15.231 0-27.619 12.392-27.619 27.624s12.387 27.619 27.619 27.619 27.624-12.388 27.624-27.619c0-9.712-5.039-18.27-12.64-23.196zm-14.983 36.818c-7.51 0-13.617-6.112-13.617-13.621s6.107-13.622 13.617-13.622 13.621 6.112 13.621 13.622-6.112 13.621-13.621 13.621zm-23.173 31.246a6.987 6.987 0 0 0-9.734 1.695c-21.55 30.648-50.284 55.892-83.759 73.291-32.228 16.75-68.859 26.217-107.711 26.217-14.973 0-29.558-1.389-43.636-4.044a231.258 231.258 0 0 1-16.62-3.773c.034-.56.053-1.123.053-1.692 0-15.231-12.387-27.624-27.619-27.624s-27.619 12.392-27.619 27.624 12.387 27.624 27.619 27.624c9.713 0 18.269-5.04 23.194-12.642a247.046 247.046 0 0 0 18.421 4.21A249.117 249.117 0 0 0 256 503.888c41.16 0 79.987-10.039 114.164-27.803 35.449-18.425 65.891-45.176 88.736-77.666a6.987 6.987 0 0 0-1.695-9.734zM168.179 493.999c-7.509 0-13.622-6.112-13.622-13.621s6.112-13.622 13.622-13.622 13.621 6.107 13.621 13.622-6.112 13.621-13.621 13.621zm-46.558-46.529c-30.648-21.55-55.892-50.284-73.291-83.759C31.58 331.483 22.113 294.852 22.113 256c0-14.973 1.389-29.558 4.044-43.636a232.196 232.196 0 0 1 3.771-16.615c.559.034 1.121.053 1.688.053 15.231 0 27.619-12.392 27.619-27.624s-12.388-27.624-27.619-27.624-27.619 12.397-27.619 27.624c0 9.714 5.04 18.272 12.641 23.198a246.939 246.939 0 0 0-4.209 18.417 249.203 249.203 0 0 0-4.318 46.206c0 41.16 10.039 79.987 27.803 114.164 18.425 35.449 45.176 65.891 77.666 88.736a6.987 6.987 0 1 0 8.039-11.429zM18.001 168.179c0-7.51 6.107-13.622 13.617-13.622s13.621 6.112 13.621 13.622-6.112 13.626-13.621 13.626-13.617-6.112-13.617-13.626z" opacity="1" data-original="url(#a)" class=""></path></g></svg>