<svg xmlns="http://www.w3.org/2000/svg" version="1.1" xmlns:xlink="http://www.w3.org/1999/xlink" width="512" height="512" x="0" y="0" viewBox="0 0 64 64" style="enable-background:new 0 0 512 512" xml:space="preserve" class=""><g><linearGradient id="a" x1="32" x2="32" y1="63" y2="2.381" gradientUnits="userSpaceOnUse"><stop stop-opacity="1" stop-color="#ce197d" offset="0.29343629343629346"></stop><stop stop-opacity="1" stop-color="#fdb8fd" offset="1"></stop></linearGradient><path fill="url(#a)" d="M25.1 31.9c.3 1 1 1.7 2 2 .4 1.2 1.5 2.1 2.9 2.1.8 0 1.5-.3 2-.8.5.5 1.2.8 2 .8 1.4 0 2.5-.9 2.9-2.1 1-.3 1.7-1 2-2 1.2-.4 2.1-1.5 2.1-2.9 0-.5-.1-1.1-.4-1.5.3-.4.4-1 .4-1.5s-.1-1.1-.4-1.5c.3-.4.4-1 .4-1.5 0-1.4-.9-2.5-2.1-2.9-.3-1-1-1.7-2-2-.4-1.2-1.5-2.1-2.9-2.1-.8 0-1.5.3-2 .8-.5-.5-1.2-.8-2-.8-1.4 0-2.5.9-2.9 2.1-1 .3-1.7 1-2 2-1.2.4-2.1 1.5-2.1 2.9 0 .5.1 1 .4 1.5-.3.5-.4 1-.4 1.5s.1 1 .4 1.5c-.3.5-.4 1-.4 1.5 0 1.4.9 2.5 2.1 2.9zm.2-5.2c-.7-.6-.2-1.3 0-1.5.5-.4.4-1.3 0-1.5-.2-.1-.3-.4-.3-.7 0-.6.4-1 1-1s1-.4 1-1 .4-1 1-1 1-.4 1-1 .4-1 1-1 1 .4 1 1v2.8c0 .6.4 1 1 1s1-.4 1-1V19c0-.6.4-1 1-1s1 .4 1 1 .4 1 1 1 1 .4 1 1 .4 1 1 1 1 .4 1 1c0 .3-.1.6-.3.7-.2.2-.6.9 0 1.5.2.2.6.9 0 1.5-.2.2-.6.9 0 1.5.2.2.3.5.3.7 0 .6-.4 1-1 1s-1 .4-1 1-.4 1-1 1-1 .4-1 1-.4 1-1 1-1-.4-1-1v-7c0-.6-.4-1-1-1s-1 .4-1 1v7c0 .6-.4 1-1 1s-1-.4-1-1-.4-1-1-1-1-.4-1-1-.4-1-1-1-1-.4-1-1c0-.3.1-.5.3-.7.6-.5.3-1.3 0-1.5zM28 51h8c.6 0 1-.4 1-1s-.4-1-1-1h-8c-.6 0-1 .4-1 1s.4 1 1 1zm0 4h8c.6 0 1-.4 1-1s-.4-1-1-1h-8c-.6 0-1 .4-1 1s.4 1 1 1zm0 4h8c.6 0 1-.4 1-1s-.4-1-1-1h-8c-.6 0-1 .4-1 1s.4 1 1 1zm0-12h8c.6 0 1-.4 1-1s-.4-1-1-1h-8c-.6 0-1 .4-1 1s.4 1 1 1zm34 6c-.6 0-1 .4-1 1v2.1c0 .6.4 1 1 1s1-.4 1-1V54c0-.6-.4-1-1-1zm0-12h-7v-7c0-.6-.4-1-1-1h-9V19h5c.6 0 1-.4 1-1v-3h5c.6 0 1-.4 1-1V7h1c.6 0 1-.4 1-1V4c0-.6-.4-1-1-1s-1 .4-1 1v1h-2V3h1c.6 0 1-.4 1-1s-.4-1-1-1h-2c-.6 0-1 .4-1 1v4c0 .6.4 1 1 1h1v6h-5c-.6 0-1 .4-1 1v3h-4v-1.1c0-1.6-1.3-2.9-2.9-2.9H39v-2h5c.6 0 1-.4 1-1V7h1c.6 0 1-.4 1-1V2c0-.6-.4-1-1-1h-2c-.6 0-1 .4-1 1s.4 1 1 1h1v2h-2V4c0-.6-.4-1-1-1s-1 .4-1 1v2c0 .6.4 1 1 1h1v2h-5c-.6 0-1 .4-1 1v3h-4V7h1c.6 0 1-.4 1-1V2c0-.6-.4-1-1-1h-4c-.6 0-1 .4-1 1v4c0 .6.4 1 1 1h1v6h-4v-3c0-.6-.4-1-1-1h-5V7h1c.6 0 1-.4 1-1V2c0-.6-.4-1-1-1h-4c-.6 0-1 .4-1 1v1.1c0 .6.4 1 1 1 1 0 1-1.1 1-1.1h2v2h-1.9c-.6 0-1 .4-1 1 0 .5.4 1 .9 1v3c0 .6.4 1 1 1h5v2h-3.1c-1.6 0-2.9 1.3-2.9 2.9V17h-4v-3c0-.6-.4-1-1-1H9V7h1c.6 0 1-.4 1-1V2c0-.6-.4-1-1-1H6c-.6 0-1 .4-1 1v4c0 .6.4 1 1 1h1v7c0 .6.4 1 1 1h5v3c0 .6.4 1 1 1h5v14h-9c-.6 0-1 .4-1 1v7H2c-.6 0-1 .4-1 1v20c0 .6.4 1 1 1h2.2c.6 0 1-.4 1-1s-.4-1-1-1H3V43h14v18H8.1c-.6 0-1 .4-1 1s.4 1 1 1H18c.6 0 1-.4 1-1V42c0-.6-.4-1-1-1h-7v-6h8v1.1c0 1.6 1.3 2.9 2.9 2.9.6 0 1-.4 1-1s-.4-1-1-1c-.5 0-.9-.4-.9-.9V15.9c0-.5.4-.9.9-.9h20.2c.5 0 .9.4.9.9v20.2c0 .5-.4.9-.9.9H26c-.6 0-1 .4-1 1s.4 1 1 1h5v2h-7c-.6 0-1 .4-1 1v2.2c0 .6.4 1 1 1s1-.4 1-1V43h14v18H25V48.1c0-.6-.4-1-1-1s-1 .4-1 1V62c0 .6.4 1 1 1h16c.6 0 1-.4 1-1V42c0-.6-.4-1-1-1h-7v-2h9.1c1.6 0 2.9-1.3 2.9-2.9V35h8v6h-7c-.6 0-1 .4-1 1v20c0 .6.4 1 1 1h16c.6 0 1-.4 1-1v-2c0-.6-.4-1-1-1s-1 .4-1 1v1H47V43h14v7c0 .6.4 1 1 1s1-.4 1-1v-8c0-.6-.4-1-1-1zM7 5V3h2v2zm24-2h2v2h-2zm27 46h-8c-.6 0-1 .4-1 1s.4 1 1 1h8c.6 0 1-.4 1-1s-.4-1-1-1zm0 4h-8c-.6 0-1 .4-1 1s.4 1 1 1h8c.6 0 1-.4 1-1s-.4-1-1-1zm0 4h-8c-.6 0-1 .4-1 1s.4 1 1 1h8c.6 0 1-.4 1-1s-.4-1-1-1zm0-12h-8c-.6 0-1 .4-1 1s.4 1 1 1h8c.6 0 1-.4 1-1s-.4-1-1-1zM6 51h8c.6 0 1-.4 1-1s-.4-1-1-1H6c-.6 0-1 .4-1 1s.4 1 1 1zm0 4h8c.6 0 1-.4 1-1s-.4-1-1-1H6c-.6 0-1 .4-1 1s.4 1 1 1zm9 3c0-.6-.4-1-1-1H6c-.6 0-1 .4-1 1s.4 1 1 1h8c.6 0 1-.4 1-1zM6 47h8c.6 0 1-.4 1-1s-.4-1-1-1H6c-.6 0-1 .4-1 1s.4 1 1 1z" opacity="1" data-original="url(#a)" class=""></path></g></svg>