<svg xmlns="http://www.w3.org/2000/svg" version="1.1" xmlns:xlink="http://www.w3.org/1999/xlink" width="512" height="512" x="0" y="0" viewBox="0 0 64 64" style="enable-background:new 0 0 512 512" xml:space="preserve" class=""><g><linearGradient id="a" x1="78.644" x2="25.425" y1="74.123" y2="11.863" gradientUnits="userSpaceOnUse"><stop stop-opacity="1" stop-color="#ff37df" offset="0.003"></stop><stop stop-opacity="1" stop-color="#fdb8fd" offset="1"></stop></linearGradient><path fill="url(#a)" fill-rule="evenodd" d="M2 20c0-9.941 8.059-18 18-18h24c9.941 0 18 8.059 18 18v24c0 9.941-8.059 18-18 18H20c-9.941 0-18-8.059-18-18zm35.599-4.58a2 2 0 0 0-3.912-.84l-7.285 34a2 2 0 0 0 3.91.84zm-13.9 10.709a2 2 0 1 0-2.828-2.829l-7.285 7.286a2 2 0 0 0 0 2.828l7.286 7.286a2 2 0 1 0 2.828-2.828L17.828 32zM43.13 23.3A2 2 0 1 0 40.3 26.13L46.172 32 40.3 37.872A2 2 0 1 0 43.13 40.7l7.285-7.286a2 2 0 0 0 0-2.828z" clip-rule="evenodd" opacity="1" data-original="url(#a)" class=""></path></g></svg>