<svg id="Layer_1" enable-background="new 0 0 512 512" height="512" viewBox="0 0 512 512" width="512" xmlns="http://www.w3.org/2000/svg"><g><g><path d="m458.09 504.5-92.858-343.405-361.482 54.616z" fill="#978ecb"/><path d="m409.788 473.798 48.302 30.702-92.858-343.405-38.43 5.806z" fill="#8379c1"/><path d="m3.75 423.922 239.831-416.422 257.169 217.663z" fill="#fe93d3"/><path d="m458.09 242.14 42.66-16.977-257.169-217.663-20.092 36.077z" fill="#fe73c5"/><path d="m252.25 504.5c-65.494 0-118.587-53.057-118.587-118.506s53.093-118.506 118.587-118.506z" fill="#6cf5c2"/></g><path d="m3.75 36.352 111.221-27.852 21.514 74.064 74.817-18.733 31.947 109.965-37.198 10.705-21.517-74.066-74.818 18.734-21.514-74.064-74.814 18.736z" fill="#ffe177"/><g><path d="m420.451 2.197c-2.929-2.929-7.678-2.929-10.606 0l-15.375 15.374-15.374-15.374c-2.929-2.929-7.678-2.929-10.606 0-2.929 2.929-2.929 7.678 0 10.606l15.374 15.374-15.374 15.374c-2.929 2.929-2.929 7.678 0 10.606 1.464 1.464 3.384 2.197 5.303 2.197s3.839-.732 5.303-2.197l15.374-15.374 15.374 15.374c1.464 1.464 3.384 2.197 5.303 2.197s3.839-.732 5.303-2.197c2.929-2.929 2.929-7.678 0-10.606l-15.374-15.374 15.374-15.374c2.93-2.929 2.93-7.678.001-10.606z" fill="#978ecb"/><path d="m93.341 457.842c-2.929-2.929-7.678-2.929-10.606 0l-15.375 15.374-15.374-15.374c-2.929-2.929-7.678-2.929-10.606 0-2.929 2.929-2.929 7.678 0 10.606l15.374 15.374-15.374 15.375c-2.929 2.929-2.929 7.678 0 10.606 1.464 1.464 3.384 2.197 5.303 2.197s3.839-.732 5.303-2.197l15.374-15.374 15.374 15.374c1.464 1.464 3.384 2.197 5.303 2.197s3.839-.732 5.303-2.197c2.929-2.929 2.929-7.678 0-10.606l-15.374-15.374 15.374-15.374c2.93-2.93 2.93-7.679.001-10.607z" fill="#978ecb"/><path d="m476.812 76.895c-17.334 0-31.438 14.103-31.438 31.438 0 17.334 14.103 31.438 31.438 31.438s31.438-14.103 31.438-31.438-14.103-31.438-31.438-31.438zm0 47.876c-9.063 0-16.438-7.374-16.438-16.438s7.374-16.438 16.438-16.438 16.438 7.374 16.438 16.438-7.374 16.438-16.438 16.438z" fill="#ffe177"/></g></g></svg>